<?xml version="1.0" encoding="UTF-8"?>
<!DOCTYPE svg PUBLIC "-//W3C//DTD SVG 1.1//EN" "http://www.w3.org/Graphics/SVG/1.1/DTD/svg11.dtd">
<!-- Creator: CorelDRAW 2018 (64 Bit) -->
<svg xmlns="http://www.w3.org/2000/svg" xml:space="preserve" width="3508px" height="2480px" version="1.1" shape-rendering="geometricPrecision" text-rendering="geometricPrecision" image-rendering="optimizeQuality" fill-rule="evenodd" clip-rule="evenodd"
viewBox="0 0 3508 2480.4"
 xmlns:xlink="http://www.w3.org/1999/xlink">
 <g id="Camada_x0020_1">
  <metadata id="CorelCorpID_0Corel-Layer"/>
  <g id="_2231140417984">
   <path fill="#12E19F" fill-rule="nonzero" d="M512.1 1119.66l69.42 0 49.57 -59.5 19.84 59.5 29.75 39.67 -19.84 49.57 -19.83 29.75 -29.74 0 0 19.84 29.74 39.67 79.34 19.83 -59.51 138.83 -29.75 9.92 0 -109.09 -49.57 -49.58 -39.67 -128.91 -39.67 0 0 -39.67 9.92 -19.83zm0 0z"/>
   <path fill="#12E19F" fill-rule="nonzero" d="M779.84 1149.41l-19.83 29.75 -29.75 19.83 39.66 19.83 -49.57 29.75 19.83 29.75 49.58 9.92 0 39.67 19.83 29.74 19.83 0 19.84 -59.49 0 -39.67 29.75 0 19.83 29.75 29.74 -29.75 9.92 19.83 0 29.75 79.34 19.84 -29.75 -39.67 -9.92 -29.75 29.75 -29.75 0 -49.58 69.41 -19.83 0 -29.75 -99.16 -49.59 -29.75 0 -109.08 59.5 -29.75 -19.83 -29.75 0 0 29.75zm0 0z"/>
   <path fill="#12E19F" fill-rule="nonzero" d="M968.25 1417.15l0 -29.75 29.75 -19.83 39.67 0 19.84 29.75 0 29.75 -49.59 -19.84 -39.67 9.92zm0 0z"/>
   <path fill="#12E19F" fill-rule="nonzero" d="M700.51 1020.5l59.5 0 0 49.57 -39.66 59.51 -29.75 -49.59 -19.84 -9.92 0 -49.57 29.75 0zm0 0z"/>
   <path fill="#ABABAB" fill-rule="nonzero" d="M948.78 1211.52c-0.21,-0.74 -21.01,-74.6 -75.53,-113.54 -65.17,-46.53 -159.93,-28.28 -160.88,-28.1l-3.9 -19.44c4.22,-0.84 104.2,-20.09 176.29,31.41 60.37,43.11 82.23,121.16 83.14,124.46l-19.12 5.21zm0 0z"/>
   <path fill="#ABABAB" fill-rule="nonzero" d="M951.33 1215.94c-0.47,-0.48 -48.69,-47.26 -142.73,-56.67 -95.13,-9.54 -163.02,18.81 -163.69,19.08l-7.8 -18.22c2.93,-1.26 72.91,-30.63 173.48,-20.59 101.51,10.15 152.63,60.23 154.76,62.36l-14.02 14.04zm0 0z"/>
   <path fill="#ABABAB" fill-rule="nonzero" d="M1035.51 1393.59l-15.51 -12.37c0.43,-0.54 43.06,-54.9 28.09,-99.77 -17.65,-52.95 -90.26,-62.62 -90.98,-62.71l-1.2 -0.21c-0.53,-0.14 -55.89,-13.1 -142.84,19.5 -75.31,28.24 -123.51,104.28 -123.98,105.04l-16.82 -10.5c2.09,-3.35 52.3,-82.54 133.84,-113.12 89.3,-33.48 147.1,-21.9 154.03,-20.31 8.13,1.12 85.9,13.43 106.77,76.04 18.37,55.15 -29.37,115.85 -31.4,118.41zm0 0z"/>
   <g>
    <g>
     <g>
      <path fill="white" d="M1309.91 1311.48l60.74 0 0 35.76 -107.05 0 0 -190.26 46.31 0 0 154.5zm0 0z"/>
     </g>
    </g>
   </g>
   <g>
    <g>
     <g>
      <path fill="white" d="M1429.97 1180.29c-8.16,0 -14.81,-2.39 -19.97,-7.18 -5.14,-4.78 -7.71,-10.68 -7.71,-17.72 0,-7.23 2.57,-13.25 7.71,-18.03 5.16,-4.79 11.81,-7.18 19.97,-7.18 7.94,0 14.48,2.39 19.62,7.18 5.16,4.78 7.75,10.8 7.75,18.03 0,7.04 -2.59,12.94 -7.75,17.72 -5.14,4.79 -11.68,7.18 -19.62,7.18zm23 15.71l0 151.24 -46.31 0 0 -151.24 46.31 0zm0 0z"/>
     </g>
    </g>
   </g>
   <g>
    <g>
     <g>
      <path fill="white" d="M1592.54 1194.41c17.7,0 31.84,5.73 42.4,17.2 10.57,11.46 15.86,27.23 15.86,47.29l0 88.34 -46.08 0 0 -82.11c0,-10.12 -2.62,-17.97 -7.86,-23.57 -5.24,-5.62 -12.29,-8.43 -21.14,-8.43 -8.86,0 -15.91,2.81 -21.14,8.43 -5.24,5.6 -7.86,13.45 -7.86,23.57l0 82.11 -46.31 0 0 -151.24 46.31 0 0 20.09c4.7,-6.69 11.03,-11.96 18.98,-15.83 7.94,-3.89 16.89,-5.85 26.84,-5.85zm0 0z"/>
     </g>
    </g>
   </g>
   <g>
    <g>
     <g>
      <path fill="white" d="M1789.23 1347.24l-46.08 -63.43 0 63.43 -46.31 0 0 -200.55 46.31 0 0 110.85 45.82 -61.54 57.17 0 -62.87 75.89 63.4 75.35 -57.44 0zm0 0z"/>
     </g>
    </g>
   </g>
   <g>
    <g>
     <g>
      <path fill="#ABABAB" d="M2071.13 1194.41c18.77,0 33.72,5.69 44.83,17.08 11.11,11.37 16.67,27.17 16.67,47.41l0 88.34 -46.05 0 0 -82.11c0,-9.77 -2.58,-17.31 -7.74,-22.63 -5.15,-5.33 -12.23,-8.01 -21.26,-8.01 -9.03,0 -16.13,2.68 -21.29,8.01 -5.15,5.32 -7.71,12.86 -7.71,22.63l0 82.11 -46.08 0 0 -82.11c0,-9.77 -2.58,-17.31 -7.75,-22.63 -5.14,-5.33 -12.22,-8.01 -21.26,-8.01 -9.03,0 -16.13,2.68 -21.29,8.01 -5.14,5.32 -7.71,12.86 -7.71,22.63l0 82.11 -46.31 0 0 -151.24 46.31 0 0 18.98c4.71,-6.32 10.86,-11.33 18.45,-15.03 7.59,-3.69 16.17,-5.54 25.74,-5.54 11.39,0 21.54,2.45 30.48,7.33 8.96,4.85 15.95,11.8 20.99,20.84 5.24,-8.3 12.38,-15.07 21.41,-20.31 9.04,-5.24 18.89,-7.86 29.57,-7.86zm0 0z"/>
     </g>
    </g>
   </g>
   <g>
    <g>
     <g>
      <path fill="#ABABAB" d="M2321.47 1269.19c0,4.33 -0.29,8.85 -0.84,13.55l-104.85 0c0.71,9.4 3.72,16.58 9.04,21.56 5.33,4.97 11.89,7.44 19.66,7.44 11.56,0 19.61,-4.87 24.14,-14.65l49.31 0c-2.53,9.95 -7.09,18.9 -13.7,26.84 -6.58,7.95 -14.84,14.19 -24.79,18.71 -9.92,4.51 -21.03,6.76 -33.33,6.76 -14.8,0 -27.99,-3.16 -39.55,-9.49 -11.57,-6.32 -20.6,-15.36 -27.1,-27.1 -6.51,-11.74 -9.76,-25.47 -9.76,-41.19 0,-15.72 3.2,-29.44 9.61,-41.19 6.42,-11.74 15.42,-20.77 26.98,-27.1 11.56,-6.32 24.84,-9.49 39.82,-9.49 14.63,0 27.64,3.07 39.03,9.22 11.39,6.15 20.28,14.92 26.68,26.31 6.43,11.37 9.65,24.64 9.65,39.82zm-47.45 -12.18c0,-7.95 -2.72,-14.28 -8.13,-18.98 -5.42,-4.71 -12.18,-7.07 -20.31,-7.07 -7.77,0 -14.33,2.27 -19.66,6.8 -5.31,4.51 -8.61,10.92 -9.87,19.25l57.97 0zm0 0z"/>
     </g>
    </g>
   </g>
   <g>
    <g>
     <g>
      <path fill="#12E19F" d="M2496.55 1156.98l0 37.13 -50.41 0 0 153.13 -46.35 0 0 -153.13 -50.41 0 0 -37.13 147.17 0zm0 0z"/>
     </g>
    </g>
   </g>
   <g>
    <g>
     <g>
      <path fill="#12E19F" d="M2682.95 1196l0 151.24 -46.35 0 0 -20.62c-4.69,6.71 -11.05,12.1 -19.1,16.18 -8.05,4.05 -16.95,6.07 -26.68,6.07 -11.57,0 -21.78,-2.56 -30.64,-7.71 -8.86,-5.16 -15.73,-12.61 -20.61,-22.36 -4.86,-9.76 -7.29,-21.23 -7.29,-34.43l0 -88.37 46.09 0 0 82.15c0,10.1 2.62,17.95 7.85,23.57 5.24,5.6 12.27,8.39 21.11,8.39 9.03,0 16.17,-2.79 21.41,-8.39 5.24,-5.62 7.86,-13.47 7.86,-23.57l0 -82.15 46.35 0zm0 0z"/>
     </g>
    </g>
   </g>
   <g>
    <g>
     <g>
      <path fill="#12E19F" d="M2776.39 1221.21c5.44,-8.29 12.23,-14.84 20.35,-19.63 8.12,-4.78 17.16,-7.17 27.1,-7.17l0 49.04 -12.75 0c-11.57,0 -20.25,2.49 -26.04,7.44 -5.77,4.97 -8.66,13.69 -8.66,26.16l0 70.19 -46.31 0 0 -151.24 46.31 0 0 25.21zm0 0z"/>
     </g>
    </g>
   </g>
  </g>
 </g>
</svg>
